<?xml version="1.0" encoding="utf-8"?>
<!-- Generator: Adobe Illustrator 18.0.0, SVG Export Plug-In . SVG Version: 6.00 Build 0)  -->
<!DOCTYPE svg PUBLIC "-//W3C//DTD SVG 1.1//EN" "http://www.w3.org/Graphics/SVG/1.1/DTD/svg11.dtd">
<svg version="1.1" id="Calque_1" xmlns="http://www.w3.org/2000/svg" xmlns:xlink="http://www.w3.org/1999/xlink" x="0px" y="0px"
	 viewBox="0 0 330 449" enable-background="new 0 0 330 449" xml:space="preserve">
<g>
	<g>
		<path fill="#FFFFFF" d="M194.7,433.1c-23.8,0-51.5-2.7-84.5-8.7c-4.9-1.1-8.7-6-7.6-10.8c1.1-4.9,6-8.7,10.8-7.6
			c109.4,21.1,161.5-3.8,175-11.4v-259c0-58-53.1-105.6-118.1-105.6S52.2,77.1,52.2,135.6v85.6c0,5.4-4.3,9.2-9.2,9.2
			c-5.4,0-9.2-4.3-9.2-9.2v-85.6C33.8,66.8,95,11,170.9,11s137.1,55.8,137.1,124.6v267.6l-3.3,2.7
			C302.5,407.6,271.1,433.1,194.7,433.1z"/>
	</g>
	<g>
		<path fill="#FFFFFF" d="M104.8,156.2c-16.8,0-30.3-13.5-30.3-30.3S88,95.5,104.8,95.5s30.3,13.5,30.3,30.3
			S121.6,156.2,104.8,156.2z M104.8,113.9c-6.5,0-11.4,5.4-11.4,11.4c0,6.5,5.4,11.4,11.4,11.4c6.5,0,11.4-5.4,11.4-11.4
			C116.1,119.4,111.3,113.9,104.8,113.9z"/>
	</g>
	<g>
		<path fill="#FFFFFF" d="M237,156.2c-16.8,0-30.3-13.5-30.3-30.3s13.5-30.3,30.3-30.3c16.8,0,30.3,13.5,30.3,30.3
			S253.8,156.2,237,156.2z M237,113.9c-6.5,0-11.4,5.4-11.4,11.4c0,6.5,5.4,11.4,11.4,11.4c6.5,0,11.4-5.4,11.4-11.4
			C248.9,119.4,243.5,113.9,237,113.9z"/>
	</g>
	<g>
		<path fill="#FFFFFF" d="M170.9,157.8L170.9,157.8c-5.4,0-9.2-4.3-9.2-9.8c0-34.1-8.1-57.4-24.9-68.3c-26.5-17.9-66.1-1.1-66.6-1.1
			L35.4,93.4c-4.9,2.2-10.3,0-12.5-4.9s0-10.3,4.9-12.5l34.7-14.6c2.2-1.1,49.8-20.6,84.5,2.7c22.2,14.6,33.6,43.3,33.6,84
			C180.1,153.5,175.7,157.8,170.9,157.8z"/>
	</g>
	<g>
		<path fill="#FFFFFF" d="M170.9,157.8c-5.4,0-9.2-4.3-9.2-9.2c0-41.2,10.8-69.3,33.6-84c34.7-23.3,82.4-3.3,84.5-2.7l1.1,0.5
			l39.6,21.7c4.3,2.7,6,8.1,3.8,13c-2.7,4.3-8.1,6.5-13,3.8l-39-21.7c-4.3-1.6-41.7-15.7-66.6,1.1c-16.8,11.4-24.9,34.1-24.9,68.3
			C180.1,153.5,175.7,157.3,170.9,157.8L170.9,157.8z"/>
	</g>
	<g>
		<path fill="#FFFFFF" d="M171.4,205c-2.7,0-5.4-1.6-7-3.8l-26-45c-1.6-2.2-1.6-5.4,0-8.1c1.6-2.2,3.8-3.8,7-3.8h52
			c2.7,0,5.4,1.6,7,3.8c1.6,2.2,1.6,5.4,0,8.1l-26,45C176.8,203.9,174.1,205,171.4,205z M158.9,160l12.5,21.7l12.5-21.7H158.9z"/>
	</g>
	<g>
		<path fill="#FFFFFF" d="M305.8,63.6h-45c-5.4,0-9.2-4.3-9.2-9.2s4.3-9.2,9.2-9.2h45c5.4,0,9.2,4.3,9.2,9.2S310.7,63.6,305.8,63.6z
			"/>
	</g>
	<g>
		<path fill="#FFFFFF" d="M258.1,55.4c-3.3,0-6.5-1.6-8.1-4.9c-2.7-4.3-1.1-10.3,3.8-13L283,21.8c4.3-2.7,10.3-1.1,13,3.8
			c2.7,4.3,1.1,10.3-3.8,13L263,54.3C261.3,54.9,259.7,55.4,258.1,55.4z"/>
	</g>
	<g>
		<path fill="#FFFFFF" d="M79.3,55.4c-1.6,0-3.3-0.5-4.3-1.1L45.7,38.6c-4.3-2.7-6.5-8.1-3.8-13c2.7-4.3,8.1-6.5,13-3.8l29.3,15.7
			c4.3,2.7,6.5,8.1,3.8,13C85.8,53.3,82.6,55.4,79.3,55.4z"/>
	</g>
	<g>
		<path fill="#FFFFFF" d="M78.8,63.6h-45c-5.4,0-9.2-4.3-9.2-9.2s4.3-9.2,9.2-9.2h45c5.4,0,9.2,4.3,9.2,9.2S84.2,63.6,78.8,63.6z"/>
	</g>
</g>
<path fill="#FFFFFF" stroke="#FFFFFF" stroke-width="5" stroke-miterlimit="10" d="M12.6,276.3c-3.1,9.6-3.9,19.5-4.4,28.6
	c-1.5,27.7,0.1,54.4,2.4,79.5l0.1,3.4c0.4,4.3,2,7.2,4.8,8.7c4.1,2.2,8.7-0.2,10.1-1c0,0,0,0,0.1-0.2l4.8-2.8
	c8.6-5.1,17.6-10.4,26.5-15.9c13.8-8.6,31.7-20.4,47.7-34.5c5.3-4.7,10.4-9.4,13.9-15.7c9.4-16.2,10.6-33.2,3.9-50.6
	c-5.2-13.5-15-24.5-27.6-31.1l0,0c-18.4-9.6-40.1-8.9-58,2.1C24.9,254,16.6,264.1,12.6,276.3z M41,253.5
	c15.5-9.6,34.2-10.2,50.2-1.8c10.9,5.7,19.6,15.2,24,26.9c5.8,15,4.7,30-3.3,44c-2.9,5.2-7.3,9.4-12.4,13.7
	C84,350.1,66.5,361.6,53,370.1c-8.5,5.4-17.5,10.7-26.4,15.7l-4.5,2.7c-0.1,0.2-0.3,0.1-0.4,0.3c-0.7,0.4-1.9,0.9-2.4,0.9
	c0,0-0.5-0.5-0.6-2.5l-0.2-3.2c-2.1-24.5-3.8-51-2.3-78.2c0.5-8.8,1.3-18,4.1-26.6C23.5,268.3,30.5,259.8,41,253.5z M78.5,267.8
	c1-1.9,3.3-2.6,5.2-1.6c17.1,8.9,23.6,30,14.8,46.9c-1,1.9-3.3,2.6-5.2,1.6c-1.9-1-2.6-3.3-1.6-5.2c6.7-13.3,1.5-29.6-11.6-36.5
	C78.2,272.2,77.5,269.7,78.5,267.8z"/>
</svg>
