<svg xmlns="http://www.w3.org/2000/svg" viewBox="0 0 330 449" enable-background="new 0 0 330 449"><path fill="#fff" d="M194.7 433.1c-23.8 0-51.5-2.7-84.5-8.7-4.9-1.1-8.7-6-7.6-10.8 1.1-4.9 6-8.7 10.8-7.6 109.4 21.1 161.5-3.8 175-11.4v-259c0-58-53.1-105.6-118.1-105.6S52.2 77.1 52.2 135.6v85.6c0 5.4-4.3 9.2-9.2 9.2-5.4 0-9.2-4.3-9.2-9.2v-85.6C33.8 66.8 95 11 170.9 11S308 66.8 308 135.6v267.6l-3.3 2.7c-2.2 1.7-33.6 27.2-110 27.2zM104.8 156.2c-16.8 0-30.3-13.5-30.3-30.3S88 95.5 104.8 95.5s30.3 13.5 30.3 30.3-13.5 30.4-30.3 30.4zm0-42.3c-6.5 0-11.4 5.4-11.4 11.4 0 6.5 5.4 11.4 11.4 11.4 6.5 0 11.4-5.4 11.4-11.4-.1-5.9-4.9-11.4-11.4-11.4zM237 156.2c-16.8 0-30.3-13.5-30.3-30.3s13.5-30.3 30.3-30.3 30.3 13.5 30.3 30.3-13.5 30.3-30.3 30.3zm0-42.3c-6.5 0-11.4 5.4-11.4 11.4 0 6.5 5.4 11.4 11.4 11.4 6.5 0 11.4-5.4 11.4-11.4.5-5.9-4.9-11.4-11.4-11.4zM170.9 157.8c-5.4 0-9.2-4.3-9.2-9.8 0-34.1-8.1-57.4-24.9-68.3-26.5-17.9-66.1-1.1-66.6-1.1L35.4 93.4c-4.9 2.2-10.3 0-12.5-4.9s0-10.3 4.9-12.5l34.7-14.6c2.2-1.1 49.8-20.6 84.5 2.7 22.2 14.6 33.6 43.3 33.6 84-.5 5.4-4.9 9.7-9.7 9.7zM170.9 157.8c-5.4 0-9.2-4.3-9.2-9.2 0-41.2 10.8-69.3 33.6-84 34.7-23.3 82.4-3.3 84.5-2.7l1.1.5 39.6 21.7c4.3 2.7 6 8.1 3.8 13-2.7 4.3-8.1 6.5-13 3.8l-39-21.7c-4.3-1.6-41.7-15.7-66.6 1.1-16.8 11.4-24.9 34.1-24.9 68.3-.7 4.9-5.1 8.7-9.9 9.2zM171.4 205c-2.7 0-5.4-1.6-7-3.8l-26-45c-1.6-2.2-1.6-5.4 0-8.1 1.6-2.2 3.8-3.8 7-3.8h52c2.7 0 5.4 1.6 7 3.8 1.6 2.2 1.6 5.4 0 8.1l-26 45c-1.6 2.7-4.3 3.8-7 3.8zm-12.5-45l12.5 21.7 12.5-21.7h-25zM305.8 63.6h-45c-5.4 0-9.2-4.3-9.2-9.2s4.3-9.2 9.2-9.2h45c5.4 0 9.2 4.3 9.2 9.2s-4.3 9.2-9.2 9.2zM258.1 55.4c-3.3 0-6.5-1.6-8.1-4.9-2.7-4.3-1.1-10.3 3.8-13L283 21.8c4.3-2.7 10.3-1.1 13 3.8 2.7 4.3 1.1 10.3-3.8 13L263 54.3c-1.7.6-3.3 1.1-4.9 1.1zM79.3 55.4c-1.6 0-3.3-.5-4.3-1.1L45.7 38.6c-4.3-2.7-6.5-8.1-3.8-13 2.7-4.3 8.1-6.5 13-3.8l29.3 15.7c4.3 2.7 6.5 8.1 3.8 13-2.2 2.8-5.4 4.9-8.7 4.9zM78.8 63.6h-45c-5.4 0-9.2-4.3-9.2-9.2s4.3-9.2 9.2-9.2h45c5.4 0 9.2 4.3 9.2 9.2s-3.8 9.2-9.2 9.2z"/><path fill="#fff" stroke="#fff" stroke-width="5" stroke-miterlimit="10" d="M12.6 276.3c-3.1 9.6-3.9 19.5-4.4 28.6-1.5 27.7.1 54.4 2.4 79.5l.1 3.4c.4 4.3 2 7.2 4.8 8.7 4.1 2.2 8.7-.2 10.1-1l.1-.2 4.8-2.8c8.6-5.1 17.6-10.4 26.5-15.9 13.8-8.6 31.7-20.4 47.7-34.5 5.3-4.7 10.4-9.4 13.9-15.7 9.4-16.2 10.6-33.2 3.9-50.6-5.2-13.5-15-24.5-27.6-31.1-18.4-9.6-40.1-8.9-58 2.1-12 7.2-20.3 17.3-24.3 29.5zM41 253.5c15.5-9.6 34.2-10.2 50.2-1.8 10.9 5.7 19.6 15.2 24 26.9 5.8 15 4.7 30-3.3 44-2.9 5.2-7.3 9.4-12.4 13.7-15.5 13.8-33 25.3-46.5 33.8-8.5 5.4-17.5 10.7-26.4 15.7l-4.5 2.7c-.1.2-.3.1-.4.3-.7.4-1.9.9-2.4.9 0 0-.5-.5-.6-2.5l-.2-3.2c-2.1-24.5-3.8-51-2.3-78.2.5-8.8 1.3-18 4.1-26.6 3.2-10.9 10.2-19.4 20.7-25.7zm37.5 14.3c1-1.9 3.3-2.6 5.2-1.6 17.1 8.9 23.6 30 14.8 46.9-1 1.9-3.3 2.6-5.2 1.6-1.9-1-2.6-3.3-1.6-5.2 6.7-13.3 1.5-29.6-11.6-36.5-1.9-.8-2.6-3.3-1.6-5.2z"/></svg>