<?xml version="1.0" encoding="utf-8"?>
<!-- Generator: Adobe Illustrator 18.0.0, SVG Export Plug-In . SVG Version: 6.00 Build 0)  -->
<!DOCTYPE svg PUBLIC "-//W3C//DTD SVG 1.1//EN" "http://www.w3.org/Graphics/SVG/1.1/DTD/svg11.dtd">
<svg version="1.1" id="Layer_1" xmlns="http://www.w3.org/2000/svg" xmlns:xlink="http://www.w3.org/1999/xlink" x="0px" y="0px"
	 viewBox="30 15 42 41" enable-background="new 30 15 42 41" xml:space="preserve">
<g>
	<path fill="#FFFFFF" d="M45,43.7c3.3,0,6.3-1.2,8.6-3l14.1,14.1c0.3,0.3,0.7,0.5,1.2,0.5s0.8-0.2,1.2-0.5c0.7-0.7,0.7-1.6,0-2.3
		l-14-14.1c1.9-2.4,3-5.3,3-8.6c0-7.7-6.3-14-14-14c-7.7,0-14,6.3-14,14C31,37.4,37.4,43.7,45,43.7z M45,19
		c5.9,0,10.7,4.8,10.7,10.7S51,40.4,45,40.4s-10.7-4.8-10.7-10.7S39.2,19,45,19z"/>
</g>
</svg>
